<svg width="71" height="76" viewBox="0 0 71 76" fill="none" xmlns="http://www.w3.org/2000/svg">
<path d="M34.2181 74.4577C25.2022 74.4577 16.733 73.4014 10.3705 71.4834C4.29563 69.6521 0.811523 67.2033 0.811523 64.765C0.811523 62.3267 4.29563 59.8779 10.3705 58.0466C16.733 56.1286 25.2022 55.0723 34.2181 55.0723C43.234 55.0723 51.7032 56.1286 58.0657 58.0466C64.1406 59.8779 67.6247 62.3267 67.6247 64.765C67.6247 67.2033 64.1406 69.6521 58.0657 71.4834C51.7032 73.4014 43.234 74.4577 34.2181 74.4577Z" fill="white"/>
<path d="M34.2213 55.6151C25.2563 55.6151 16.8419 56.6634 10.5281 58.5667C4.78238 60.2988 1.35209 62.617 1.35209 64.7679C1.35209 66.9188 4.78238 69.237 10.5281 70.9691C16.8419 72.8724 25.2563 73.9206 34.2213 73.9206C43.1863 73.9206 51.6007 72.8724 57.9145 70.9691C63.6602 69.237 67.0905 66.9188 67.0905 64.7679C67.0905 62.617 63.6602 60.2988 57.9145 58.5667C51.6007 56.6634 43.1863 55.6151 34.2213 55.6151ZM34.2213 54.5352C52.968 54.5352 68.1652 59.1165 68.1652 64.7679C68.1652 70.4192 52.968 75.0006 34.2213 75.0006C15.4746 75.0006 0.277344 70.4192 0.277344 64.7679C0.277344 59.1165 15.4746 54.5352 34.2213 54.5352Z" fill="#2D2D2D"/>
<path d="M11.479 54.899C10.306 53.2949 9.24573 51.6105 8.30583 49.8582C6.89729 47.4412 5.8285 44.8399 5.12994 42.1283C4.10808 38.5951 4.15202 34.8367 5.25622 31.3286C6.50448 27.7571 8.8827 24.6949 12.0271 22.6105C14.9265 20.7463 18.3216 19.8122 21.7616 19.9321C25.3613 20.1957 28.7779 21.6286 31.4961 24.0145C34.409 26.6834 36.2966 30.2955 36.8296 34.2202C37.2113 36.7073 37.1394 39.2433 36.6173 41.7045C35.8718 44.6463 34.6568 47.4473 33.0196 49.9986C32.0327 51.7851 30.9296 53.5042 29.7174 55.1447C25.6683 60.5932 23.4114 63.6333 20.5552 63.6063C17.7985 63.582 15.692 60.6877 11.479 54.899Z" fill="white" stroke="#2D2D2D" stroke-width="0.4"/>
<path d="M20.8232 47.4839C27.1195 47.4839 32.2236 42.355 32.2236 36.0281C32.2236 29.7012 27.1195 24.5723 20.8232 24.5723C14.527 24.5723 9.42285 29.7012 9.42285 36.0281C9.42285 42.355 14.527 47.4839 20.8232 47.4839Z" fill="#C7DCFF" stroke="#2D2D2D" stroke-width="0.4"/>
<path d="M21.1194 39.7637C23.3141 39.7637 25.0932 37.9759 25.0932 35.7705C25.0932 33.5652 23.3141 31.7773 21.1194 31.7773C18.9247 31.7773 17.1455 33.5652 17.1455 35.7705C17.1455 37.9759 18.9247 39.7637 21.1194 39.7637Z" fill="white" stroke="#2D2D2D" stroke-width="0.4"/>
<path d="M33.3779 51.1018C31.6898 48.7986 30.1636 46.3799 28.8103 43.8633C26.7851 40.3921 25.2479 36.656 24.2426 32.7611C22.7748 27.6856 22.8384 22.2865 24.4253 17.2473C26.2187 12.1174 29.6351 7.719 34.1518 4.72502C38.3134 2.04937 43.1858 0.707659 48.1235 0.87765C53.2902 1.25871 58.1938 3.31683 62.0952 6.7419C66.2789 10.575 68.99 15.7629 69.7554 21.3999C70.3043 24.9724 70.2015 28.6155 69.4518 32.151C68.3812 36.3761 66.6363 40.3989 64.285 44.0631C62.8678 46.6293 61.2835 49.0989 59.5426 51.4555C53.7283 59.2853 50.4852 63.6484 46.377 63.6052C42.4569 63.5701 39.4288 59.4149 33.3779 51.1018Z" fill="white" stroke="#2D2D2D" stroke-width="0.4"/>
<path d="M46.7956 7.53906C50.0346 7.53906 53.2008 8.5042 55.8939 10.3124C58.587 12.1206 60.686 14.6907 61.9255 17.6977C63.165 20.7046 63.4893 24.0134 62.8574 27.2056C62.2255 30.3978 60.6658 33.3299 58.3755 35.6314C56.0852 37.9328 53.1672 39.5001 49.9905 40.1351C46.8138 40.77 43.521 40.4441 40.5286 39.1986C37.5362 37.9531 34.9786 35.8439 33.1791 33.1377C31.3797 30.4315 30.4192 27.2499 30.4192 23.9952C30.4192 19.6307 32.1446 15.4451 35.2157 12.3589C38.2869 9.27282 42.4523 7.53906 46.7956 7.53906V7.53906Z" fill="#FFABAF" stroke="#2D2D2D" stroke-width="0.4"/>
<path d="M47.2284 29.3541C50.3803 29.3541 52.9353 26.7866 52.9353 23.6194C52.9353 20.4523 50.3803 17.8848 47.2284 17.8848C44.0766 17.8848 41.5215 20.4523 41.5215 23.6194C41.5215 26.7866 44.0766 29.3541 47.2284 29.3541Z" fill="white" stroke="#2D2D2D" stroke-width="0.4"/>
</svg>
