<svg width="63" height="75" viewBox="0 0 63 75" fill="none" xmlns="http://www.w3.org/2000/svg">
<path d="M34.4454 31.259C37.8594 33.3271 40.406 36.5749 41.6082 40.3942C42.662 43.4533 42.5685 46.7936 41.3455 49.7884C40.3982 51.673 39.0293 53.3114 37.3463 54.5753C35.6632 55.8392 33.7117 56.6941 31.6448 57.0732C29.618 57.37 27.5513 57.2174 25.5894 56.6263C23.6276 56.0351 21.8182 55.0197 20.2884 53.6512H10.0723C11.9899 57.4147 14.9693 60.5265 18.6378 62.5972C21.5083 64.1928 24.709 65.0949 27.9865 65.2321C33.6591 65.3992 39.1943 63.4621 43.5364 59.7904C47.0977 56.8286 49.5597 52.7453 50.5232 48.202C51.247 43.9742 50.6685 39.6252 48.8651 35.7369C47.0511 31.3681 44.0916 27.5757 40.302 24.7637L34.4454 31.259Z" fill="white" stroke="#2D2D2D" stroke-width="0.4" stroke-miterlimit="10"/>
<path d="M40.6196 0.858767C39.311 1.43408 39.1945 2.72416 37.8933 5.13C36.1501 7.99494 33.9467 10.5499 31.3726 12.6912C23.7761 20.5389 26.6783 25.2733 18.8934 33.1733C15.9366 36.1818 13.8399 37.193 13.9068 39.4469C14.2949 41.3496 15.3825 43.0354 16.9526 44.1682C18.5227 45.3009 20.4599 45.7974 22.3781 45.5586C24.3213 44.9584 24.9012 42.9336 26.3016 40.1168C30.7182 31.2257 34.1336 32.8619 39.6853 23.2261C42.9222 17.6125 42.3918 15.9638 45.8295 12.0611C47.9163 9.68764 49.4157 8.82344 49.4133 7.00536C49.4058 3.44391 43.6037 -0.456228 40.6196 0.858767Z" fill="#D6EA88" stroke="#2D2D2D" stroke-width="0.4" stroke-miterlimit="10"/>
<path d="M36.1225 5.85083C36.985 5.73627 37.5576 6.0451 42.693 9.64639C46.029 11.985 46.3809 12.2689 46.6114 12.904C47.3401 14.8964 45.5928 16.7543 42.232 21.4689C35.5402 30.8507 32.2016 35.5453 31.4184 36.9599C30.5782 38.4742 29.5918 40.4168 27.6859 40.8576C26.1244 41.2162 24.7414 40.3944 22.1762 38.8079C19.0855 36.9002 16.9715 35.5976 16.6939 33.5255C16.5105 32.1582 17.2243 31.1944 19.0683 28.6167C22.8925 23.277 25.7229 19.195 26.2557 18.4055C27.4132 16.7269 28.3377 15.28 31.2871 10.9913C33.996 7.06621 34.7668 6.02766 36.1225 5.85083Z" fill="white" stroke="#2D2D2D" stroke-width="0.4" stroke-miterlimit="10"/>
<path d="M34.8839 34.4489C39.2888 34.4489 42.8596 30.8607 42.8596 26.4344C42.8596 22.0081 39.2888 18.4199 34.8839 18.4199C30.479 18.4199 26.9082 22.0081 26.9082 26.4344C26.9082 30.8607 30.479 34.4489 34.8839 34.4489Z" fill="#FFABAF" stroke="#2D2D2D" stroke-width="0.4" stroke-miterlimit="10" stroke-linecap="round"/>
<path d="M3.14786 52.2141C2.92944 52.353 2.75003 52.5457 2.62657 52.7739C2.50311 53.0021 2.43974 53.2583 2.44247 53.518C2.4452 53.7777 2.51392 54.0325 2.64215 54.258C2.77038 54.4836 2.9538 54.6724 3.17508 54.8067L3.25692 54.864C4.83818 55.9822 7.82464 55.3621 15.9243 55.3621C23.6595 55.3621 26.5941 55.9274 28.0688 54.864C28.2858 54.7329 28.466 54.5484 28.5922 54.3278C28.7184 54.1072 28.7864 53.8579 28.7899 53.6035C28.7934 53.3491 28.7323 53.098 28.6122 52.874C28.492 52.65 28.3168 52.4606 28.1034 52.3236L28.049 52.2838C26.5024 51.1705 23.4217 51.8156 15.5328 51.7857C7.70082 51.7782 4.65476 51.1282 3.14786 52.2141Z" fill="white" stroke="#2D2D2D" stroke-width="0.4" stroke-miterlimit="10"/>
<path d="M1.51169 70.1176C1.22315 70.4501 1.04684 70.8659 1.0081 71.3053C0.969361 71.7447 1.07025 72.1851 1.29613 72.5633C3.21693 75.6242 13.2819 73.4674 31.9125 73.6866C45.0013 73.841 53.5669 75.0663 55.2671 72.4139C55.4821 72.0738 55.5851 71.6745 55.562 71.2723C55.5389 70.8701 55.3907 70.4854 55.1383 70.1724C52.9076 67.276 43.2415 70.1077 28.3187 70.0753C13.3562 70.0429 3.92819 67.139 1.51169 70.1176Z" fill="white" stroke="#2D2D2D" stroke-width="0.4" stroke-miterlimit="10"/>
<path d="M16.0555 73.8778C16.8479 70.5096 18.3079 67.3366 20.3482 64.5483C22.6209 61.47 25.7488 57.0045 29.8159 57.2037C33.2858 57.3756 35.6775 60.8149 37.9948 64.1522C40.0403 67.1001 41.5081 70.4127 42.3198 73.9126L16.0555 73.8778Z" fill="white" stroke="#2D2D2D" stroke-width="0.4" stroke-miterlimit="10"/>
<path d="M42.9525 56.5897C42.978 56.2838 43.1151 55.9982 43.3375 55.7876C43.5598 55.5771 43.8517 55.4566 44.1571 55.449C45.511 55.439 46.8529 55.192 48.1225 54.7193C48.8932 54.3678 49.6183 53.9229 50.2814 53.3943L51.5206 52.4355C51.7691 52.2383 52.0781 52.1341 52.3947 52.1409C52.7112 52.1478 53.0155 52.2651 53.2554 52.4729C54.2103 53.328 55.2821 54.0417 56.4379 54.5923C56.5097 54.6256 56.5833 54.6547 56.6584 54.6795C57.907 55.1059 59.2187 55.3156 60.5372 55.2996C60.8418 55.3015 61.1349 55.4161 61.3608 55.6215C61.5866 55.8268 61.7292 56.1085 61.7615 56.4129C62.331 60.0926 61.953 63.8575 60.6636 67.3487C58.91 70.3987 56.2003 72.7791 52.958 74.118C52.8041 74.1859 52.6379 74.2209 52.4698 74.2209C52.3017 74.2209 52.1354 74.1859 51.9815 74.118C48.7509 72.8262 46.0376 70.4947 44.2661 67.4882C42.9231 64.0242 42.4713 60.2757 42.9525 56.5897Z" fill="#C7DCFF" stroke="#2D2D2D" stroke-width="0.4" stroke-miterlimit="10"/>
<path d="M50.8584 66.8108C50.6157 66.8117 50.381 66.7231 50.199 66.5618C49.7009 66.1185 49.2284 65.647 48.7838 65.1496C48.3486 64.6586 47.9414 64.143 47.5644 63.6055C47.4129 63.3888 47.3533 63.1206 47.3986 62.8597C47.4439 62.5989 47.5905 62.3668 47.8061 62.2146C48.0217 62.0623 48.2887 62.0023 48.5483 62.0479C48.8079 62.0934 49.0388 62.2407 49.1903 62.4574C49.5221 62.9321 49.8813 63.3871 50.266 63.8197C50.4791 64.0588 50.7021 64.2929 50.9351 64.522C51.8695 63.8222 52.7866 63.08 53.6615 62.3154C54.7322 61.384 55.7755 60.3977 56.757 59.3791C56.9404 59.1892 57.1913 59.0803 57.4547 59.0763C57.718 59.0723 57.9721 59.1736 58.1611 59.3579C58.3501 59.5422 58.4585 59.7944 58.4624 60.0589C58.4664 60.3235 58.3655 60.5789 58.1821 60.7688C57.1585 61.8273 56.0755 62.8559 54.9602 63.8247C53.8448 64.7935 52.6403 65.7498 51.4308 66.6265C51.2635 66.746 51.0636 66.8104 50.8584 66.8108Z" fill="#2D2D2D"/>
</svg>
