<svg width="68" height="78" viewBox="0 0 68 78" fill="none" xmlns="http://www.w3.org/2000/svg">
<path d="M1.55542 2.55365C1.17486 3.24179 0.983432 4.01927 1.00112 4.80633C1.01882 5.59339 1.24495 6.36163 1.65605 7.0318C2.44505 8.2812 4.00655 9.11226 13.6514 9.09859C23.2472 9.09859 24.7872 8.27847 25.5354 7.0318C25.9137 6.36468 26.1106 5.60921 26.1063 4.84137C26.102 4.07352 25.8966 3.32025 25.5108 2.65744C24.36 0.828453 21.974 1.01716 13.2243 1.01716C4.95883 0.992554 2.66274 0.809414 1.55542 2.55365Z" fill="white" stroke="#2D2D2D" stroke-width="0.3" stroke-miterlimit="10" stroke-linecap="round"/>
<path d="M26.7847 7.97107C27.1139 11.1807 27.4919 15.8337 27.6007 21.4738C27.9926 26.2576 27.718 31.073 26.7847 35.7804C25.321 41.1881 23.0002 43.0992 18.1846 50.3878C14.7653 55.5646 11.7108 60.9754 9.04317 66.5807C8.59767 67.3501 8.32513 68.2082 8.24476 69.0947C8.16439 69.9812 8.27807 70.8747 8.57787 71.7123C8.97436 72.6353 9.58694 73.4482 10.3633 74.0823C11.1397 74.7163 12.057 75.1525 13.0372 75.3538C16.6339 75.6518 21.7213 76.0401 27.8701 76.39C28.5666 76.4283 33.9916 76.7318 41.245 76.8657C46.6128 76.9056 51.971 76.399 57.2373 75.3538C58.293 75.2854 59.3235 75.0009 60.2658 74.5176C61.2081 74.0343 62.0421 73.3624 62.7165 72.5433C63.1712 71.567 63.4146 70.5049 63.4305 69.4271C63.4465 68.3493 63.2347 67.2803 62.8091 66.2909C59.1743 54.9889 48.4114 48.5861 44.88 35.9663C43.8375 31.5971 43.38 27.1075 43.5196 22.6166C43.4324 17.4247 43.8569 12.2367 44.7873 7.12891L26.7847 7.97107Z" fill="white" stroke="#2D2D2D" stroke-width="0.3" stroke-miterlimit="10" stroke-linecap="round"/>
<path d="M14.9525 68.5795C16.506 72.3277 23.7515 72.3715 37.6977 72.3031C55.2733 72.2074 57.0498 69.8781 57.6076 68.6751C58.6469 66.3513 57.1722 63.6093 54.5196 58.702C52.7235 54.2689 49.4547 50.5977 45.2692 48.313C42.4847 47.2116 39.4918 46.7447 36.506 46.946C33.7701 46.7866 31.0308 47.1944 28.4582 48.1436C23.561 50.1667 21.1314 54.344 18.5822 58.7347C15.5785 63.8908 14.0955 66.4771 14.9525 68.5795Z" fill="#FFABAF" stroke="#2D2D2D" stroke-width="0.3" stroke-miterlimit="10"/>
<path d="M32.2158 22.2539H40.4078" stroke="#2D2D2D" stroke-width="0.3" stroke-miterlimit="10" stroke-linecap="round"/>
<path d="M32.2158 27.1211H40.4078" stroke="#2D2D2D" stroke-width="0.3" stroke-miterlimit="10" stroke-linecap="round"/>
<path d="M32.2158 32.5586H40.4078" stroke="#2D2D2D" stroke-width="0.3" stroke-miterlimit="10" stroke-linecap="round"/>
<path d="M32.2158 37.9941H40.4078" stroke="#2D2D2D" stroke-width="0.3" stroke-miterlimit="10" stroke-linecap="round"/>
<path d="M43.2516 32.1773C43.4638 34.2633 43.7116 37.276 43.7687 40.9422C44.0301 44.0497 43.856 47.1787 43.2516 50.2376C42.3048 53.7452 40.803 54.9837 37.6688 59.7134C35.4531 63.0744 33.4708 66.5848 31.7352 70.2197C31.4477 70.7196 31.2718 71.2766 31.2201 71.8516C31.1684 72.4267 31.2422 73.0061 31.436 73.5496C31.6933 74.149 32.0907 74.6771 32.5947 75.0888C33.0988 75.5005 33.6943 75.7837 34.3307 75.9144C36.6623 76.1085 39.9653 76.3629 43.962 76.5871C44.4164 76.6089 47.926 76.8085 52.6491 76.8933C56.1313 76.9203 59.6071 76.5914 63.023 75.9118C63.7074 75.8697 64.3756 75.6869 64.9868 75.3746C65.598 75.0624 66.1389 74.6273 66.576 74.0964C66.8728 73.463 67.032 72.7732 67.0423 72.073C67.0526 71.3729 66.9141 70.6787 66.6361 70.0366C64.28 62.7043 57.2905 58.5541 55.0051 50.3524C54.3316 47.5163 54.0352 44.603 54.1237 41.6886C54.0673 38.3199 54.3405 34.9536 54.9397 31.6387L43.2516 32.1773Z" fill="white" stroke="#2D2D2D" stroke-width="0.3" stroke-miterlimit="10" stroke-linecap="round"/>
<path d="M41.0119 28.6616C40.7652 29.109 40.6417 29.6144 40.6542 30.1257C40.6666 30.637 40.8145 31.1356 41.0826 31.5704C41.5941 32.3906 42.6091 32.921 48.8694 32.9155C55.1296 32.91 56.0956 32.3687 56.5744 31.5704C56.8202 31.1393 56.9494 30.6511 56.9494 30.1542C56.9494 29.6574 56.8202 29.1693 56.5744 28.7382C55.8235 27.5571 54.2834 27.6856 48.6053 27.6664C43.2157 27.6527 41.7301 27.5325 41.0119 28.6616Z" fill="white" stroke="#2D2D2D" stroke-width="0.3" stroke-miterlimit="10" stroke-linecap="round"/>
<path d="M35.5704 71.496C36.5743 73.9319 41.2837 73.9566 50.3246 73.9129C61.7296 73.85 62.8805 72.3381 63.2342 71.5562C63.9143 70.0526 62.9623 68.2755 61.2292 65.085C60.0611 62.211 57.9371 59.8331 55.2193 58.3569C51.6786 57.2154 47.8767 57.1783 44.3146 58.2502C41.4574 59.7313 39.1955 62.1566 37.9101 65.1177C35.973 68.4586 35.0072 70.1236 35.5704 71.496Z" fill="#E3F1FF" stroke="#2D2D2D" stroke-width="0.3" stroke-miterlimit="10"/>
<path d="M46.7744 41.4434H52.0879" stroke="#2D2D2D" stroke-width="0.3" stroke-miterlimit="10" stroke-linecap="round"/>
<path d="M46.7747 44.5938H52.0881" stroke="#2D2D2D" stroke-width="0.3" stroke-miterlimit="10" stroke-linecap="round"/>
<path d="M46.7747 48.1289H52.0881" stroke="#2D2D2D" stroke-width="0.3" stroke-miterlimit="10" stroke-linecap="round"/>
<path d="M46.7747 51.6523H52.0881" stroke="#2D2D2D" stroke-width="0.3" stroke-miterlimit="10" stroke-linecap="round"/>
</svg>
