<svg width="64" height="114" viewBox="0 0 64 114" fill="none" xmlns="http://www.w3.org/2000/svg">
<path d="M24.7277 57.6161L31.0117 68.3832L36.3855 77.5974C40.2636 74.4523 44.1421 71.2613 48.0211 68.0244C48.5297 67.6001 49.0383 67.1747 49.5469 66.7479C47.6287 64.2679 45.704 61.6687 43.7727 58.9503C39.9998 53.6208 36.6534 48.4105 33.6827 43.4016C30.699 48.1381 27.7139 52.8763 24.7277 57.6161Z" fill="white"/>
<path d="M36.394 45.6316C37.8468 49.0655 39.5478 52.389 41.4838 55.5756C42.9662 58.0209 44.5988 60.3719 46.3722 62.6152C48.7997 65.6812 51.4353 68.5768 54.2598 71.2815C54.933 71.9228 54.9414 71.8958 55.267 72.2262C57.5656 73.9462 59.0082 76.794 59.9664 80.2856" stroke="#2D2D2D" stroke-width="0.8" stroke-miterlimit="10" stroke-linecap="round"/>
<path d="M32.5928 77.5369C31.8835 79.5686 31.3088 81.6448 30.8726 83.7521C30.063 87.6737 30.1896 89.5325 29.2079 94.0192C28.8148 95.8154 28.4524 97.0832 28.0421 98.5145C26.7165 103.114 25.0851 107.619 23.1586 112L49.9042 111.292L59.3017 103.891L56.8604 88.3519L53.4561 76.8034C48.0173 72.0182 41.2846 70.636 36.6591 73.2516C34.9234 74.2639 33.5129 75.7506 32.5928 77.5369Z" fill="white"/>
<path d="M23.192 111.883C26.1391 106.505 28.1886 100.682 29.2598 94.6429C30.6579 86.5344 29.7612 80.4002 34.4395 74.8864C35.9131 73.204 37.6349 71.7564 39.5454 70.5938C42.8367 68.5885 46.5744 67.4318 50.4231 67.2275C52.2645 68.4675 53.9317 69.9484 55.3802 71.6307C58.0674 74.9097 59.9774 78.7546 60.9666 82.8769C64.1044 94.0974 63.0771 107.307 62.7429 110.958" fill="white"/>
<path d="M23.192 111.883C26.1391 106.505 28.1886 100.682 29.2598 94.6429C30.6579 86.5344 29.7612 80.4002 34.4395 74.8864C35.9131 73.204 37.6349 71.7564 39.5454 70.5938C42.8367 68.5885 46.5744 67.4318 50.4231 67.2275C52.2645 68.4675 53.9317 69.9484 55.3802 71.6307C58.0674 74.9097 59.9774 78.7546 60.9666 82.8769C64.1044 94.0974 63.0771 107.307 62.7429 110.958" stroke="#2D2D2D" stroke-width="0.8" stroke-miterlimit="10" stroke-linecap="round"/>
<path d="M27.3724 63.6382C28.6821 65.2906 30.0408 67.1507 31.3873 69.2245C32.5827 71.0673 33.6185 72.8426 34.5166 74.5208" fill="white"/>
<path d="M27.3724 63.6382C28.6821 65.2906 30.0408 67.1507 31.3873 69.2245C32.5827 71.0673 33.6185 72.8426 34.5166 74.5208" stroke="#2D2D2D" stroke-width="0.8" stroke-miterlimit="10" stroke-linecap="round"/>
<path d="M41.0429 38.1095C41.1928 23.1177 32.342 10.8748 21.2741 10.7641C10.2062 10.6534 1.11229 22.7169 0.962368 37.7087C0.81245 52.7005 9.66326 64.9435 20.7312 65.0542C31.7991 65.1648 40.893 53.1013 41.0429 38.1095Z" fill="white" stroke="#2D2D2D" stroke-width="0.8" stroke-miterlimit="10"/>
<path d="M1.04337 16.0552C0.00646412 27.358 20.7284 40.3807 30.8505 35.0279C34.0448 33.3386 36.0844 29.8679 38.0698 30.7279C40.0355 31.5879 40.866 36.2024 39.4396 39.5281C38.0882 42.683 35.6605 42.613 34.6814 45.1475C33.0842 49.2718 36.8041 56.4183 40.808 56.9233C46.2136 57.6039 53.122 46.2962 54.8272 36.1729C56.0699 29.559 55.0971 22.7199 52.0594 16.715C45.0787 3.31383 30.5729 1.00412 29.3013 0.841953C21.7809 0.0416709 14.2178 1.89987 7.92448 6.09404C2.05319 10.507 1.20185 14.3315 1.04337 16.0552Z" fill="#050A4E" stroke="#2D2D2D" stroke-width="0.8" stroke-miterlimit="10"/>
<path d="M20.5959 10.1129C21.1669 9.26367 21.9166 8.54953 22.7924 8.02037C23.6683 7.49122 24.6491 7.15986 25.6665 7.0495C26.6838 6.93914 27.7128 7.05246 28.6818 7.3815C29.6507 7.71053 30.5362 8.24733 31.276 8.95435C33.4831 8.56265 35.7567 9.01853 37.6422 10.2308C38.6099 10.8578 39.4419 11.6725 40.0894 12.6265C42.568 13.2287 44.7389 14.7211 46.1888 16.8196C47.6386 18.9182 48.2663 21.4766 47.9524 24.0079C48.6158 25.0448 48.9993 26.2359 49.0655 27.4651C48.9772 28.6166 48.6357 29.7344 48.0655 30.7387C47.4953 31.743 46.7103 32.609 45.7667 33.2749C44.4341 34.1421 42.8586 34.5589 41.2715 34.4642C40.9678 34.7884 40.6073 35.0541 40.2076 35.248C39.5033 35.557 38.7298 35.6752 37.9653 35.5908C37.351 35.5637 37.012 35.5613 36.7565 35.8119C36.3154 36.2444 36.4027 37.1302 36.4874 37.9889C36.5845 38.9718 36.6865 39.9988 35.8732 40.4608C35.4137 40.7274 34.8646 40.5984 33.6446 40.3121C33.161 40.2118 32.6838 40.0826 32.2157 39.9252C32.0096 39.8511 31.8134 39.7516 31.632 39.629C31.2211 39.266 30.9001 38.8125 30.6944 38.3042C30.4886 37.7959 30.404 37.2468 30.4466 36.7002C30.4085 36.121 30.3238 35.5458 30.1935 34.9802C29.6939 33.3314 28.6606 31.8953 27.256 30.8977C26.829 30.8528 26.4069 30.7706 25.9943 30.652C25.8714 30.6176 25.7068 30.5635 25.5028 30.4886C24.5217 30.1166 23.6169 29.5682 22.8332 28.8705C21.9634 28.1429 21.2506 27.2458 20.7384 26.2341C19.2393 26.1145 17.7851 25.6651 16.48 24.9179C15.1749 24.1707 14.0511 23.1442 13.189 21.912C12.5486 21.0344 12.107 20.0279 11.8948 18.9625C11.6826 17.897 11.705 16.7981 11.9605 15.7421C12.8696 12.4729 16.409 10.1792 20.5959 10.1129Z" fill="#FF8E93"/>
<path d="M20.6194 25.8779C19.0537 25.8001 17.5259 25.3688 16.1508 24.6162C14.7756 23.8636 13.5888 22.8094 12.6792 21.5325C12.0703 20.6592 11.6472 19.6701 11.4358 18.6266C11.2245 17.5831 11.2296 16.5074 11.4507 15.4659C12.3377 12.2802 15.8993 9.92141 20.23 9.91772" stroke="#2D2D2D" stroke-width="0.7" stroke-miterlimit="10" stroke-linecap="round"/>
<path d="M19.2655 13.2095C19.3631 11.6343 19.99 10.1381 21.0445 8.9638C22.0989 7.78947 23.5191 7.00578 25.0748 6.73981C26.6305 6.47384 28.2306 6.74119 29.6153 7.49851C31 8.25584 32.0881 9.45874 32.7035 10.9121" stroke="#2D2D2D" stroke-width="0.7" stroke-miterlimit="10" stroke-linecap="round"/>
<path d="M31.2451 8.71844C33.4736 8.25678 35.7944 8.67738 37.7191 9.89177C39.6437 11.1062 41.0225 13.0197 41.5652 15.2298" stroke="#2D2D2D" stroke-width="0.7" stroke-miterlimit="10" stroke-linecap="round"/>
<path d="M38.931 30.147C38.8007 30.7265 38.5108 31.258 38.0944 31.6816C37.6781 32.1051 37.1518 32.4038 36.5746 32.5439C35.8464 32.6922 35.089 32.5757 34.4391 32.2153C33.7891 31.8549 33.2891 31.2744 33.029 30.5783C32.9153 29.9689 32.9585 29.3406 33.155 28.7527C33.3515 28.1648 33.6945 27.6366 34.1517 27.2181C34.7366 26.5532 35.4883 26.0563 36.3293 25.7788C37.1703 25.5013 38.07 25.4531 38.9358 25.6394C39.6275 25.8771 40.2558 26.2697 40.7726 26.7874C41.2894 27.305 41.681 27.9339 41.9175 28.626" stroke="#2D2D2D" stroke-width="0.7" stroke-miterlimit="10" stroke-linecap="round"/>
<path d="M29.9626 20.7683C30.1689 20.5382 30.3245 20.2672 30.4191 19.9729C30.5137 19.6787 30.5453 19.3679 30.5118 19.0606C30.2563 17.5471 27.7574 16.644 25.8273 16.8492C25.0162 16.9795 24.2395 17.2712 23.5431 17.7069C22.8467 18.1427 22.2448 18.7137 21.773 19.3862C20.6419 20.7105 20.0658 22.4204 20.1649 24.1592C20.4035 25.9893 21.3501 27.653 22.8014 28.7933C23.7019 29.6003 24.7671 30.2018 25.9232 30.5563C27.1165 30.8446 28.3565 30.8835 29.5655 30.6704C30.7745 30.4573 31.9263 29.9969 32.9491 29.3179" stroke="#2D2D2D" stroke-width="0.7" stroke-miterlimit="10" stroke-linecap="round"/>
<path d="M40.4335 12.53C42.996 13.1154 45.2436 14.6456 46.7274 16.8152C48.2113 18.9848 48.8225 21.6342 48.4389 24.2345" stroke="#2D2D2D" stroke-width="0.7" stroke-miterlimit="10" stroke-linecap="round"/>
<path d="M41.8723 21.4531C43.0364 21.3249 44.2143 21.4723 45.3108 21.8836C46.4074 22.2949 47.3919 22.9584 48.1846 23.8205C49.0686 24.9256 49.5807 26.2818 49.6477 27.6954C49.56 28.8266 49.2246 29.9247 48.6654 30.9119C48.1062 31.8991 47.3368 32.7513 46.4116 33.4082C45.054 34.2864 43.4447 34.692 41.833 34.5618" stroke="#2D2D2D" stroke-width="0.7" stroke-miterlimit="10" stroke-linecap="round"/>
<path d="M43.0958 31.4353C42.7948 32.8272 42.1486 34.7106 40.5846 35.46C39.0207 36.2095 37.6704 35.2819 36.7637 36.1702C35.4835 37.4245 37.055 40.3792 35.9505 41.0131C35.6631 41.179 35.1177 41.05 34.0279 40.7932C33.3462 40.6951 32.6867 40.4789 32.0792 40.1544C30.8506 39.314 31.2845 37.4982 30.7919 35.5706C30.2379 33.6787 29.0558 32.032 27.4403 30.9021" stroke="#2D2D2D" stroke-width="0.7" stroke-miterlimit="10" stroke-linecap="round"/>
<path d="M23.7252 13.5851C24.0211 12.9425 24.5041 12.404 25.1108 12.0402C25.7175 11.6763 26.4199 11.504 27.1261 11.5457C27.8324 11.5873 28.5097 11.8411 29.0694 12.2738C29.6292 12.7064 30.0455 13.2979 30.2638 13.9708" stroke="#2D2D2D" stroke-width="0.7" stroke-miterlimit="10" stroke-linecap="round"/>
<path d="M14.7898 15.2166C14.9592 15.9348 15.3609 16.5771 15.9327 17.0436C16.5045 17.5101 17.2144 17.7748 17.9521 17.7965C18.5689 17.7896 19.1716 17.6109 19.6925 17.2804C20.2134 16.9498 20.6318 16.4806 20.9007 15.9254" stroke="#2D2D2D" stroke-width="0.7" stroke-miterlimit="10" stroke-linecap="round"/>
<path d="M35.6629 13.0186C35.3013 13.8477 35.1911 14.7647 35.3455 15.6559C35.5 16.5472 35.9126 17.3736 36.5321 18.0327C37.1516 18.6918 37.9506 19.1547 38.8305 19.3641C39.7105 19.5734 40.6327 19.52 41.4826 19.2105" stroke="#2D2D2D" stroke-width="0.7" stroke-miterlimit="10" stroke-linecap="round"/>
<path d="M35.7196 22.0617C36.0921 21.9915 36.4441 21.8384 36.7493 21.6135C37.0545 21.3887 37.3052 21.098 37.4827 20.7631C37.6254 20.4639 37.7066 20.1391 37.7211 19.8079C37.7357 19.4767 37.6832 19.146 37.5672 18.8354" stroke="#2D2D2D" stroke-width="0.7" stroke-miterlimit="10" stroke-linecap="round"/>
<path d="M32.2747 16.5476C32.0154 17.0053 31.6206 17.3713 31.1448 17.5955C30.6689 17.8197 30.1352 17.891 29.6172 17.7995" stroke="#2D2D2D" stroke-width="0.7" stroke-miterlimit="10" stroke-linecap="round"/>
<path d="M25.2636 22.1216C25.2062 22.9548 25.4419 23.7818 25.9301 24.4594C26.4182 25.1371 27.128 25.6226 27.9365 25.832C28.745 26.0415 29.6012 25.9615 30.3569 25.6061C31.1127 25.2506 31.7204 24.6421 32.0747 23.8858" stroke="#2D2D2D" stroke-width="0.7" stroke-miterlimit="10" stroke-linecap="round"/>
<path d="M52.0718 92.7988C52.0259 97.0674 51.7295 101.33 51.1846 105.564C50.8467 108.18 50.4304 110.662 49.9635 113" stroke="#2D2D2D" stroke-width="0.8" stroke-miterlimit="10" stroke-linecap="round"/>
</svg>
